<?xml version="1.0" encoding="iso-8859-1"?>
<!-- Generator: Adobe Illustrator 19.0.0, SVG Export Plug-In . SVG Version: 6.00 Build 0)  -->
<svg xmlns="http://www.w3.org/2000/svg" xmlns:xlink="http://www.w3.org/1999/xlink" version="1.1" id="Layer_1" x="0px" y="0px" viewBox="0 0 480 480" style="enable-background:new 0 0 480 480;" xml:space="preserve" width="512px" height="512px">
<g id="XMLID_1230_">
	<g>
		<path d="M470,415h-20V55c0-5.523-4.478-10-10-10c-5.522,0-10,4.477-10,10v190h-80v-60c0-16.542-13.458-30-30-30h-10v-6.246    c0-14.436-11.744-26.181-26.181-26.181c-4.044,0-8.093,0.956-11.707,2.764L240,141.393l-32.111-16.056    c-3.617-1.808-7.666-2.764-11.708-2.764c-14.436,0-26.18,11.745-26.18,26.181V155h-10c-16.542,0-30,13.458-30,30v60H50V55    c0-5.523-4.477-10-10-10s-10,4.477-10,10v360H10c-5.523,0-10,4.477-10,10s4.477,10,10,10h460c5.522,0,10-4.477,10-10    S475.522,415,470,415z M130,275.516c-0.037,0.013-0.075,0.026-0.112,0.039c-5.217,1.813-7.976,7.513-6.162,12.729    c1.058,3.043,3.438,5.25,6.273,6.201V415H50V265h80V275.516z M250,158.753l31.058-15.528c0.853-0.426,1.808-0.652,2.763-0.652    c3.407,0,6.18,2.772,6.18,6.181v27.64c0,3.408-2.772,6.18-6.181,6.18c-0.955,0-1.909-0.225-2.764-0.652L250,166.393V158.753z     M190,165v-16.246c0-3.408,2.772-6.181,6.18-6.181c0.954,0,1.91,0.226,2.764,0.653L230,158.753v7.64l-31.056,15.528    c-0.854,0.427-1.809,0.652-2.764,0.652c-3.408,0-6.18-2.772-6.18-6.18V165z M150,185c0-5.514,4.486-10,10-10h10v1.394    c0,14.436,11.745,26.18,26.18,26.18c4.043,0,8.092-0.956,11.708-2.764l15.431-7.715c-13.468,33.365-38.026,58.581-73.319,75.273    V185z M330,415h-30v-70c0-5.523-4.478-10-10-10c-5.522,0-10,4.477-10,10v70h-30V295c0-5.523-4.478-10-10-10    c-5.523,0-10,4.477-10,10v120h-30v-70c0-5.523-4.477-10-10-10s-10,4.477-10,10v70h-30V289.246    c42.523-17.949,73.106-47.019,90-85.362c16.895,38.343,47.477,67.414,90,85.362V415z M330.001,267.367H330    c-35.293-16.692-59.851-41.908-73.319-75.273l15.43,7.715c3.615,1.809,7.664,2.765,11.709,2.765    c14.437,0,26.181-11.744,26.181-26.18V175h10c5.514,0,10,4.486,10,10V267.367z M430,415h-80V294.484    c2.836-0.951,5.216-3.157,6.273-6.201c1.813-5.216-0.945-10.916-6.161-12.729c-0.037-0.013-0.076-0.026-0.112-0.039V265h80V415z" fill="#d1bb6f"/>
	</g>
</g>
<g>
</g>
<g>
</g>
<g>
</g>
<g>
</g>
<g>
</g>
<g>
</g>
<g>
</g>
<g>
</g>
<g>
</g>
<g>
</g>
<g>
</g>
<g>
</g>
<g>
</g>
<g>
</g>
<g>
</g>
</svg>
