<?xml version="1.0" encoding="iso-8859-1"?>
<!-- Generator: Adobe Illustrator 19.0.0, SVG Export Plug-In . SVG Version: 6.00 Build 0)  -->
<svg xmlns="http://www.w3.org/2000/svg" xmlns:xlink="http://www.w3.org/1999/xlink" version="1.1" id="Capa_1" x="0px" y="0px" viewBox="0 0 512 512" style="enable-background:new 0 0 512 512;" xml:space="preserve" width="512px" height="512px">
<g>
	<g>
		<path d="M0.078,118.25v189.577c0,33.5,23.629,61.569,55.09,68.459V482H40.17V512h59.996V482H85.168V376.286    c31.462-6.889,55.091-34.959,55.091-68.459V118.25H0.078z M110.259,186.17H30.078v-37.919h80.181V186.17z" fill="#d1bb6f"/>
	</g>
</g>
<g>
	<g>
		<path d="M393.089,242.904c-6.35-18.71-15.4-36.011-26.961-51.551l-15.02,5.07l-15.3,5.17l-70.482,23.791l-15.31,5.17l-15,5.06    c0.08,6.02,0.47,12.04,1.15,18.05h15.11h15.11h98.682h15.84h15.83L393.089,242.904z" fill="#d1bb6f"/>
	</g>
</g>
<g>
	<g>
		<path d="M339.169,163.442c-13.46-12.77-23.721-28.801-29.681-46.371l-11.31-33.311l7.12-2.41l-18.61-54.821    c-6.78-19.97-27.441-31.081-46.071-24.751l-21.381,7.25c-9.21,3.12-16.74,10.23-20.66,19.51c-3.72,8.8-4.01,18.81-0.83,28.171    l18.59,54.811l7.11-2.41l11.31,33.321c5.96,17.57,7.57,36.541,4.66,54.861l-0.87,5.48l16.02-5.41l15.69-5.3l41.301-13.95    l15.73-5.3l16.04-5.42L339.169,163.442z" fill="#d1bb6f"/>
	</g>
</g>
<g>
	<g>
		<rect x="172.955" y="283.665" width="338.968" height="47.331" fill="#d1bb6f"/>
	</g>
</g>
<g>
	<g>
		<polygon points="200.354,360.997 228.855,512 456.021,512 484.522,360.997   " fill="#d1bb6f"/>
	</g>
</g>
<g>
</g>
<g>
</g>
<g>
</g>
<g>
</g>
<g>
</g>
<g>
</g>
<g>
</g>
<g>
</g>
<g>
</g>
<g>
</g>
<g>
</g>
<g>
</g>
<g>
</g>
<g>
</g>
<g>
</g>
</svg>
